<?xml version="1.0" encoding="utf-8"?>
<!-- Generator: Adobe Illustrator 16.0.0, SVG Export Plug-In . SVG Version: 6.00 Build 0)  -->
<!DOCTYPE svg PUBLIC "-//W3C//DTD SVG 1.1//EN" "http://www.w3.org/Graphics/SVG/1.1/DTD/svg11.dtd">
<svg version="1.1" id="Layer_1" xmlns="http://www.w3.org/2000/svg" xmlns:xlink="http://www.w3.org/1999/xlink" x="0px" y="0px"
	 width="24px" height="24px" viewBox="0 0 24 24" enable-background="new 0 0 24 24" xml:space="preserve">
<path fill="none" d="M0,0h24v24H0V0z"/>
<path fill="#7A7A7A" d="M19.43,12.98c0.041-0.32,0.07-0.641,0.07-0.98s-0.029-0.66-0.07-0.98l2.11-1.65
	c0.19-0.15,0.239-0.42,0.12-0.64l-2-3.46c-0.12-0.22-0.391-0.3-0.61-0.22l-2.489,1c-0.521-0.4-1.08-0.73-1.69-0.98l-0.38-2.65
	C14.46,2.18,14.25,2,14,2h-4C9.75,2,9.54,2.18,9.51,2.42L9.13,5.07C8.52,5.32,7.96,5.66,7.44,6.05l-2.49-1
	c-0.23-0.09-0.49,0-0.61,0.22l-2,3.46C2.21,8.95,2.27,9.22,2.46,9.37l2.11,1.65C4.53,11.34,4.5,11.67,4.5,12s0.03,0.66,0.07,0.98
	L2.46,14.63c-0.19,0.15-0.24,0.42-0.12,0.64l2,3.461c0.12,0.22,0.39,0.3,0.61,0.22l2.49-1c0.52,0.399,1.08,0.729,1.69,0.979
	l0.38,2.65C9.54,21.82,9.75,22,10,22h4c0.25,0,0.46-0.18,0.49-0.42l0.38-2.65c0.61-0.25,1.17-0.59,1.69-0.979l2.489,1
	c0.229,0.09,0.49,0,0.61-0.22l2-3.461c0.119-0.22,0.07-0.489-0.12-0.64L19.43,12.98z M12,15.5c-1.93,0-3.5-1.57-3.5-3.5
	c0-1.93,1.57-3.5,3.5-3.5c1.93,0,3.5,1.57,3.5,3.5C15.5,13.93,13.93,15.5,12,15.5z"/>
</svg>
